<?xml version="1.0" encoding="utf-8"?>
<!-- Generator: Adobe Illustrator 25.0.1, SVG Export Plug-In . SVG Version: 6.00 Build 0)  -->
<svg version="1.1" xmlns="http://www.w3.org/2000/svg" xmlns:xlink="http://www.w3.org/1999/xlink" x="0px" y="0px"
	 viewBox="0 0 212 212" style="enable-background:new 0 0 212 212;" xml:space="preserve">
<style type="text/css">
	.st0{fill:#FEFEFE;}
	.st1{fill:#3B3C3F;}
	.st2{fill:#EDEDED;}
	.st3{fill:#E50B45;}
	.st4{fill:#F0F0F1;}
	.st5{fill:#303235;}
	.st6{fill:#F6F6F6;}
	.st7{fill:#E7E8E9;}
	.st8{fill:#E4E4E3;}
	.st9{fill:#3A3B3E;}
	.st10{fill:#CABEC4;}
</style>
<g id="Слой_2">
</g>
<g id="Слой_1">
	<g>
		<g>
			<path class="st0" d="M211.9,180.2c0,9.8-0.1,19.6,0.1,29.3c0,2.1-0.4,2.5-2.5,2.5c-68.9-0.1-137.8-0.1-206.7,0
				c-4.1,0-2.4-2.5-2.4-4.1C0.3,136.8,0.3,65.5,0.3-5.8c69.2,0,138.4,0,207.6-0.1c3.4,0,4.1,0.7,4.1,4.1
				c-0.1,46.1-0.1,92.2-0.1,138.2c-1.4,1.1-2.8,2.2-4.8,2.1c-1.8-2.3,0.6-4.6,0-6.9c2.4-0.8,0.5-1.7-0.1-2.3
				c-3.7-4.5-9.3-6.2-14.2-9c0.1-5.5,0.1-10.9-0.6-16.3c-4.6-33.3-30.4-60.3-63.2-65.9C95,32.3,61.2,49.2,46.2,80
				c-9,18.5-11.2,37.8-4.2,57.6c-4.5,2.2-9.8,2.5-13.9,5.6c-1.2,1.3-3.7,0.9-4,3.3c0,0.9,0,1.8,0,2.7c-4.8-1.2-8.5-0.5-9.5,5.2
				c-0.1,0.5-0.8,1-1.4,1.4c-6.8,3.9-7.8,9.2-5.2,16.3c1,2.7,2.5,6.5-0.7,9.5c-2.3,2.1-4.2,5-2.7,7.8c1.8,3.4,4.3,6.8,9.1,6.8
				c3.6,0,7.2,0.7,10.7,1.1c18.2,2.4,36.5,3.5,54.8,3.7c13,0.1,26.1,1.2,39.4-1.2c-3.2-6-4.6-11.8-2.6-18.3c2,1.2,1.4,3.1,1.8,4.6
				c3.6,12,15.7,18.2,26.5,12.4c8.8-4.7,17.9-7.8,27.3-10.4C184.8,184.3,198.2,181.2,211.9,180.2z"/>
			<path class="st1" d="M207.1,138.5c2,0.1,3.4-0.9,4.8-2.1c0,10.9,0,21.9,0,32.8c-1.6,1.4-3.5,2.4-5.7,2.7
				c-14.6,2.1-28.9,5.7-43.4,8.3c-4.3,0.8-5.8,2.7-5.2,7c0.9-0.3,1.5-0.5,2.2-0.7c17.2-4.9,34.5-9.3,52.1-12.3c0,2,0,4,0,6
				c-13.7,1.1-27.1,4.1-40.3,7.8c-9.4,2.6-18.6,5.7-27.3,10.4c-10.7,5.8-22.9-0.5-26.5-12.4c-0.4-1.5,0.1-3.3-1.8-4.6
				c-2,6.5-0.6,12.4,2.6,18.3c-13.2,2.4-26.4,1.4-39.4,1.2c-18.3-0.2-36.6-1.3-54.8-3.7c-3.5-0.5-7.1-1.2-10.7-1.1
				c-4.8,0.1-7.3-3.3-9.1-6.8c-1.5-2.8,0.4-5.7,2.7-7.8c3.2-2.9,1.7-6.7,0.7-9.5c-2.6-7.1-1.6-12.5,5.2-16.3
				c0.6-0.3,1.3-0.8,1.4-1.4c1-5.7,4.8-6.4,9.5-5.2c7.3,0.2,14.6,0.2,21.8,0.5c9.9,0.5,19.8-0.5,29.6-1.6c9.9-1.1,19.5-4.5,29.7-3.8
				c0.5,0,1,0,1.5-0.1c7.8-2.5,16-2.1,23.9-3.8c3.2-0.7,6.6-0.4,9.9,0.4c9,2.1,13.5,8.6,16.4,17.4c0.9-3.5,0.8-6.3,0-8.8
				c-1-3,0.1-3.7,2.9-3.9c6.8-0.6,13.5-1.2,20.2-2.2C189,142.1,198.3,141.7,207.1,138.5z M60.3,195.2c-0.4-1.1-0.5-1.5-0.7-1.7
				c-8.2-8.6-16.6-15.8-30-14.6c-9.3,0.8-9.4-0.2-13.5,8.6c-0.5,1-1.9,1.4-1.5,3.3C29.4,193.7,44.5,195.5,60.3,195.2z M131.3,163.8
				c8.7,2,13,6.6,13.6,14c0.6,8.8-4,14.3-13.1,17c7.8,1.5,13.1-0.6,16.7-6.5c3.9-6.3,3.6-12.6-0.3-18.7
				C144.6,164,139.3,162,131.3,163.8z M85.9,170.1c-6,0.1-11.1,5.2-11,11.2c0.1,6,5.2,10.9,11.3,10.9c6,0,11.1-5.2,11-11.2
				C97.1,175.1,91.9,170.1,85.9,170.1z M57.4,165.8c-15.1,2-29.1,2.2-43.4,0.4C18.8,172.6,48.4,172.7,57.4,165.8z M87.3,151
				c-6.5-1-12.3,1.1-18.1,3.3c-1.2,0.5-3.5,0.4-3.1,2.4c0.5,2,2.8,4.7,4.1,4.3c5.1-1.5,10.7-1,16.6-3.9c-4-1.1-6.8,0.5-9.6,0.2
				c-1-0.1-2.2,0-2.5-1.2c-0.3-1.3,1-1.4,1.9-1.7C80.2,153.2,83.8,152.1,87.3,151z M32.3,158.7c0.4-2.7-0.6-4.1-3.4-4.1
				c-2.3,0-4,0.6-3.7,3.3c0.3,2.2,0.2,4.7,3.7,4.7C31.8,162.5,32.7,161.3,32.3,158.7z"/>
			<path class="st2" d="M211.9,174.2c-17.6,3.1-34.9,7.4-52.1,12.3c-0.6,0.2-1.2,0.4-2.2,0.7c-0.6-4.3,0.9-6.2,5.2-7
				c14.5-2.6,28.8-6.2,43.4-8.3c2.2-0.3,4-1.3,5.7-2.7C211.9,170.9,211.9,172.6,211.9,174.2z"/>
			<path class="st3" d="M42,137.6C35,117.8,37.2,98.5,46.2,80c15-30.8,48.8-47.7,82.9-41.9c32.8,5.6,58.6,32.6,63.2,65.9
				c0.8,5.5,0.7,10.9,0.6,16.3c-10.2-4.7-20.9-5.5-31.9-4.6c-1.2,0-2.4,0-3.6,0c-9.3-0.1-18.5-0.2-27.8-0.1
				c-9.5,0.1-19.1,0.4-28.2,3.3c-10.8,3.5-21.3,8.1-31.9,12.3c-1.1,0.4-2.9,0-2.7,2.1c-3,0.5-6,0.9-9,1.4c-2.7,0.3-5.4,0.6-8.1,0.9
				C47.1,136.3,44.6,137,42,137.6z"/>
			<path class="st4" d="M157.3,115.7c1.2,0,2.4,0,3.6,0c-3.6,4.7-7.3,9.3-9.2,15.4c6.2-3.4,12.8-3.8,19.4-3.7c0.7,0,1.3,0,2,0
				c2.8,0.4,3.3,1.6,1.4,3.8c-1.7,2-4,2.7-6.4,3.4c-5.9,0.3-11.7,0.5-17.6,0.8c5.6,3.6,11.1,0.3,16.6,0.7
				c13.3-1.5,27.1,1.8,39.9-4.5c0.6,2.3-1.8,4.6,0,6.9c-8.8,3.2-18.1,3.5-27.2,4.8c-6.7,0.9-13.5,1.6-20.2,2.2
				c-2.7,0.2-3.8,0.9-2.9,3.9c0.8,2.6,0.9,5.4,0,8.8c-3-8.8-7.5-15.3-16.4-17.4c-3.3-0.8-6.7-1.1-9.9-0.4
				c-7.9,1.6-16.1,1.3-23.9,3.8c-0.5,0.1-1,0.1-1.5,0.1c-10.2-0.7-19.8,2.7-29.7,3.8c-9.8,1.1-19.7,2.1-29.6,1.6
				c-7.3-0.3-14.5-0.4-21.8-0.5c0-0.9,0-1.8,0-2.7c1.7-0.1,3.4-0.1,5-0.2c25.6,2.7,50.1-1.5,73-10.2c-14.5,0-29.8,0-45.2,0
				c0.3-0.5,0.6-1.1,0.8-1.6c3-0.5,6-0.9,9-1.4c1.3,0.1,2.6,0.3,3.9,0.3c22.1,0.2,44.2-1,66.4-1.7c5.8-0.2,10-1.4,12.8-7
				C151.7,121.5,154.8,118.7,157.3,115.7z"/>
			<path class="st1" d="M171.2,127.4c-6.6-0.1-13.2,0.3-19.4,3.7c1.9-6.1,5.6-10.8,9.2-15.4c11-0.9,21.7-0.1,31.9,4.6
				c4.8,2.8,10.4,4.4,14.2,9c0.5,0.6,2.5,1.5,0.1,2.3c-12.8,6.3-26.6,3-39.9,4.5c0.3-0.5,0.6-1,0.9-1.5c2.4-0.7,4.7-1.4,6.4-3.4
				c1.9-2.2,1.4-3.4-1.4-3.8c-0.3-0.5-0.4-1.4-0.8-1.4C171.3,125.8,171.3,126.7,171.2,127.4z"/>
			<path class="st1" d="M57,136.2c15.3,0,30.7,0,45.2,0c-22.9,8.7-47.5,12.9-73,10.2c-0.3-1-0.7-2.1-1-3.1c4.1-3.2,9.4-3.4,13.9-5.6
				c2.6-0.7,5.2-1.4,7.8-2.1C52,137.4,54.5,136.4,57,136.2z"/>
			<path class="st5" d="M28.1,143.3c0.3,1,0.7,2.1,1,3.1c-1.7,0.1-3.4,0.1-5,0.2C24.3,144.2,26.9,144.6,28.1,143.3z"/>
			<path class="st6" d="M60.3,195.2c-15.8,0.3-30.9-1.5-45.7-4.4c-0.4-1.8,1-2.3,1.5-3.3c4.1-8.8,4.3-7.8,13.5-8.6
				c13.4-1.2,21.9,5.9,30,14.6C59.8,193.7,59.8,194,60.3,195.2z"/>
			<path class="st4" d="M131.3,163.8c8-1.8,13.3,0.2,16.9,5.8c3.9,6.1,4.1,12.4,0.3,18.7c-3.6,5.9-8.9,8-16.7,6.5
				c9.1-2.7,13.8-8.2,13.1-17C144.3,170.4,140,165.8,131.3,163.8z"/>
			<path class="st7" d="M85.9,170.1c6-0.1,11.2,5,11.3,10.9c0.1,6-5,11.1-11,11.2c-6.1,0-11.2-4.9-11.3-10.9
				C74.8,175.3,79.9,170.2,85.9,170.1z M93.7,180.8c0.3-4.5-3.7-7.7-8.5-7.8c-4.1-0.1-7.5,3.9-7.5,8.2c0,4.5,3.6,8.3,7.9,8.3
				C90,189.5,93.8,185.4,93.7,180.8z"/>
			<path class="st8" d="M57.4,165.8c-9,6.9-38.6,6.8-43.4,0.4C28.3,168,42.3,167.8,57.4,165.8z"/>
			<path class="st8" d="M87.3,151c-3.5,1.1-7.1,2.2-10.6,3.4c-0.9,0.3-2.2,0.5-1.9,1.7c0.2,1.1,1.4,1.1,2.5,1.2
				c2.8,0.3,5.6-1.4,9.6-0.2c-5.9,2.9-11.5,2.3-16.6,3.9c-1.3,0.4-3.7-2.2-4.1-4.3c-0.4-2,1.9-1.9,3.1-2.4C75,152,80.9,150,87.3,151
				z"/>
			<path class="st2" d="M32.3,158.7c0.4,2.6-0.6,3.8-3.4,3.8c-3.4,0-3.4-2.5-3.7-4.7c-0.3-2.7,1.4-3.3,3.7-3.3
				C31.7,154.6,32.7,156,32.3,158.7z"/>
			<path class="st9" d="M157.3,115.7c-2.5,3-5.7,5.8-7.4,9.2c-2.8,5.6-7,6.8-12.8,7c-22.1,0.7-44.2,1.9-66.4,1.7
				c-1.3,0-2.6-0.2-3.9-0.3c-0.2-2.1,1.6-1.7,2.7-2.1c10.6-4.2,21.1-8.8,31.9-12.3c9-2.9,18.7-3.2,28.2-3.3
				C138.8,115.5,148.1,115.6,157.3,115.7z"/>
			<path class="st10" d="M57,136.2c-2.5,0.2-5,1.2-7.3-0.7c2.7-0.3,5.4-0.6,8.1-0.9C57.5,135.2,57.3,135.7,57,136.2z"/>
			<path class="st5" d="M168.1,134.7c-0.3,0.5-0.6,1-0.9,1.5c-5.5-0.3-11.1,2.9-16.6-0.7C156.4,135.2,162.3,134.9,168.1,134.7z"/>
			<path class="st5" d="M171.2,127.4c0.1-0.7,0.1-1.7,1.2-1.5c0.3,0.1,0.5,0.9,0.8,1.4C172.5,127.4,171.8,127.4,171.2,127.4z"/>
			<path class="st9" d="M93.7,180.8c0.1,4.6-3.6,8.6-8.1,8.7c-4.3,0-7.9-3.8-7.9-8.3c0-4.4,3.4-8.4,7.5-8.2
				C90,173.1,93.9,176.3,93.7,180.8z M90.9,181.7c-0.1-2.4-0.9-4.7-4.2-4.6c-2.5,0.1-4,1.7-4,4.1c0,2.5,1,4.3,4.2,3.9
				C89.1,184.9,91.4,185.2,90.9,181.7z"/>
			<path class="st2" d="M90.9,181.7c0.5,3.5-1.8,3.3-3.9,3.5c-3.1,0.4-4.1-1.5-4.2-3.9c0-2.4,1.4-4,4-4.1
				C90.1,177,90.8,179.2,90.9,181.7z"/>
		</g>
	</g>
</g>
</svg>
